<?xml version="1.0" encoding="UTF-8"?>
<svg version="1.1" xmlns="http://www.w3.org/2000/svg" width="500" height="500">
<path d="M0 0 C165 0 330 0 500 0 C500 165 500 330 500 500 C335 500 170 500 0 500 C0 335 0 170 0 0 Z " fill="#FEFEFE" transform="translate(0,0)"/>
<path d="M0 0 C4.42247981 2.98260266 7.62062245 6.17844608 10 11 C10.99093765 17.97227302 10.7803045 24.28843777 6.77734375 30.21875 C4.9862604 34.32294098 7.76588998 39.27184387 9.28515625 43.17578125 C9.73310547 44.33271484 10.18105469 45.48964844 10.64257812 46.68164062 C11.34543945 48.47891602 11.34543945 48.47891602 12.0625 50.3125 C12.77116211 52.1387793 12.77116211 52.1387793 13.49414062 54.00195312 C14.65914761 57.0027287 15.82788789 60.00199416 17 63 C17.58199158 63.02870178 18.16398315 63.05740356 18.76361084 63.0869751 C24.93131987 63.39412266 31.09766467 63.7224471 37.26367188 64.06201172 C39.55180805 64.18539161 41.84022315 64.30372342 44.12890625 64.41650391 C56.534056 65.03132054 68.58722075 65.8540042 80.69720459 68.75421143 C87.33421562 70.30734892 91.91736541 69.86224432 97.9375 66.4375 C102.1792541 64.24019495 105.1484081 63.23896598 110 64 C112.875 65.0625 112.875 65.0625 115 67 C115.8125 70.6875 115.8125 70.6875 116 74 C116.74765625 73.95359375 117.4953125 73.9071875 118.265625 73.859375 C126.35205479 73.5630137 126.35205479 73.5630137 129.6875 75.8125 C131 78 131 78 131 81 C131.58007812 80.84660156 132.16015625 80.69320312 132.7578125 80.53515625 C138.93593527 79.30157068 138.93593527 79.30157068 141.8984375 81.24609375 C144.75086864 84.3698537 145.92274106 86.15957346 146.3203125 90.484375 C146.67455977 94.11700614 146.67455977 94.11700614 149.3359375 96.265625 C150.33882813 96.92046875 151.34171875 97.5753125 152.375 98.25 C153.48130834 99.01926099 154.58277123 99.79552976 155.6796875 100.578125 C156.2375293 100.97580078 156.79537109 101.37347656 157.37011719 101.78320312 C175.32007483 115.18383058 192.04092899 141.3882461 197 163 C199.97 163.33 202.94 163.66 206 164 C207.89455962 169.68367887 207.14711018 174.49803017 205 180 C205.928125 180.0825 206.85625 180.165 207.8125 180.25 C211 181 211 181 212.875 182.625 C214.52492102 186.1081666 214.57467747 188.16881689 214 192 C212.62013699 194.23406392 211.10537207 196.1993238 209.41015625 198.203125 C207.79500315 200.05345933 207.79500315 200.05345933 207 203 C207.22731818 205.04452716 207.22731818 205.04452716 207.77734375 207.24609375 C207.96135742 208.07850586 208.14537109 208.91091797 208.33496094 209.76855469 C208.53379883 210.64930664 208.73263672 211.53005859 208.9375 212.4375 C210.57438539 220.05162184 211.57215461 227.18055366 211 235 C211.54087753 235.17400833 212.08175507 235.34801666 212.63902283 235.52729797 C218.3047384 237.37898035 223.84940532 239.44481915 229.37890625 241.66796875 C230.69594795 242.19615707 230.69594795 242.19615707 232.03959656 242.73501587 C234.88297813 243.87998348 237.72330192 245.03219913 240.5625 246.1875 C241.53288208 246.5820639 242.50326416 246.97662781 243.50305176 247.38314819 C256.64752139 252.75021638 269.57550941 258.40998122 282.25 264.8125 C282.90404816 265.14220795 283.55809631 265.47191589 284.23196411 265.81161499 C290.99695296 269.23989368 297.75763474 272.6753763 304 277 C304 277.66 304 278.32 304 279 C303.12706299 278.85288574 302.25412598 278.70577148 301.35473633 278.55419922 C298.34739034 278.05738855 295.3381764 277.58745038 292.32421875 277.1328125 C290.70870117 276.88724609 290.70870117 276.88724609 289.06054688 276.63671875 C286.85500921 276.30212068 284.64928692 275.96873674 282.44335938 275.63671875 C280.18474029 275.29252281 277.92752923 274.93899117 275.67163086 274.57739258 C273.11521985 274.17537702 270.56587399 273.80446362 268.00219727 273.4597168 C256.72052476 271.83797121 246.95656805 268.13536571 236.5625 263.5625 C234.99095855 262.8856858 233.41869343 262.21054942 231.84570312 261.53710938 C228.86935267 260.26132928 225.89656755 258.97778983 222.92626953 257.68798828 C218.3218312 255.69682358 213.67683566 253.81444643 209 252 C208.896875 253.2375 208.79375 254.475 208.6875 255.75 C204.05943258 295.21036431 178.51059002 328.212316 151 355 C152.49576893 359.70968174 154.30089978 364.24833815 156.23046875 368.79296875 C156.87221163 370.31647522 157.51372331 371.8400791 158.1550293 373.36376953 C158.65382095 374.54643402 158.65382095 374.54643402 159.16268921 375.75299072 C176.31770719 416.50592854 176.31770719 416.50592854 179 434 C178.67 434.66 178.34 435.32 178 436 C173.08896772 431.41857319 169.15580069 426.76913357 165.625 421.0625 C165.13314209 420.27689697 164.64128418 419.49129395 164.13452148 418.68188477 C154.1515988 402.38096522 145.44303892 385.13791901 137 368 C132.08201056 369.832127 132.08201056 369.832127 128 373 C127.855625 374.134375 127.71125 375.26875 127.5625 376.4375 C127 380 127 380 124.9375 382.4375 C120.98715265 384.53874859 118.43222695 384.30048996 114 384 C113.938125 384.9075 113.87625 385.815 113.8125 386.75 C113 390 113 390 110.9375 392.375 C107.60023312 394.22114763 105.70799692 393.91825973 101.99609375 393.6796875 C99.23587508 394.12261887 98.38358308 395.31344122 96.625 397.4375 C96.16351563 398.07558594 95.70203125 398.71367187 95.2265625 399.37109375 C94 401 94 401 92 402 C86.29008444 402.54903034 83.50192237 401.51369551 79 398 C78.54625 398.969375 78.0925 399.93875 77.625 400.9375 C76 404 76 404 74 405 C69.76028942 405.23553948 66.63821698 405.32845886 63 403 C62.5875 404.093125 62.175 405.18625 61.75 406.3125 C60.34667743 409.51545383 59.31888055 411.52494198 56 413 C50.19391963 413.10954869 47.34056734 411.0653651 43.28515625 407.27734375 C42.64900391 406.64505859 42.64900391 406.64505859 42 406 C41.4225 407.11375 40.845 408.2275 40.25 409.375 C38.98070183 411.57186222 38.15365192 412.88220019 36.125 414.4375 C33.14942718 415.22515163 31.07672478 415.43074147 28 415 C23.10642301 411.7043257 20.33213074 407.81307773 17 403 C16.34 402.67 15.68 402.34 15 402 C14.938125 402.5775 14.87625 403.155 14.8125 403.75 C13.6282104 407.02957119 11.93012878 408.17680876 9 410 C5.36791859 410.6053469 3.6501252 410.36470438 0.4375 408.5625 C-2.84859278 405.10788964 -4.87128993 401.23930346 -7 397 C-7.67546875 397.04640625 -8.3509375 397.0928125 -9.046875 397.140625 C-16.38730853 397.43763676 -16.38730853 397.43763676 -19.625 395.125 C-21 393 -21 393 -21 391 C-21.53625 391.33 -22.0725 391.66 -22.625 392 C-25.68741139 393.28943638 -27.69939439 393.40415579 -31 393 C-34.82975333 390.59527117 -36.90241944 387.97436316 -39 384 C-39.680625 384.515625 -40.36125 385.03125 -41.0625 385.5625 C-44.90525323 387.44299626 -46.91132242 387.11509388 -51 386 C-53.4375 384.4375 -53.4375 384.4375 -55 382 C-55.32168155 379.24197626 -55.1862691 376.79403643 -55 374 C-55.66 374.33 -56.32 374.66 -57 375 C-61.6478538 375.41314256 -64.24440152 374.78987316 -68 372 C-69.59412284 368.81175432 -69.10174735 365.37103338 -69.0625 361.875 C-69.05798828 361.12089844 -69.05347656 360.36679687 -69.04882812 359.58984375 C-69.03703499 357.72652873 -69.01909942 355.86325445 -69 354 C-69.68835938 353.79761719 -70.37671875 353.59523438 -71.0859375 353.38671875 C-75.01022498 351.51926291 -77.60039348 348.89060979 -80.625 345.8125 C-81.23891602 345.18956055 -81.85283203 344.56662109 -82.48535156 343.92480469 C-111.50442392 313.82147016 -124.69338116 272.28212122 -124.1171875 231.0859375 C-124.07989801 229.0572583 -124.04081843 227.02861126 -124 225 C-123.92008442 220.91669446 -123.86042863 216.83379088 -123.8125 212.75 C-123.78760498 211.82719238 -123.76270996 210.90438477 -123.73706055 209.95361328 C-123.64376779 203.90175602 -123.64376779 203.90175602 -127 199 C-127.72628652 194.8238525 -127.16933684 193.27709665 -124.9375 189.625 C-122 187 -122 187 -118.1875 186.625 C-116.6096875 186.810625 -116.6096875 186.810625 -115 187 C-115.44472656 186.43152344 -115.88945313 185.86304688 -116.34765625 185.27734375 C-120.93184096 179.02238557 -120.93184096 179.02238557 -121.25 174.25 C-119.56949416 169.88068482 -117.88577894 168.59051929 -114 166 C-111.625 165.1875 -111.625 165.1875 -110 165 C-110.66 164.154375 -111.32 163.30875 -112 162.4375 C-114.31178236 158.46412407 -114.65744119 156.51990817 -114 152 C-111.84021131 148.11238036 -110.48172749 147.16860462 -106.25 145.6875 C-105.1775 145.460625 -104.105 145.23375 -103 145 C-103.66 144.01 -104.32 143.02 -105 142 C-105.50835292 138.1026276 -105.32962183 136.49443274 -103.125 133.1875 C-99.81404749 129.77916653 -97.6695854 129.86610363 -92.97265625 129.76953125 C-91 130 -91 130 -88 132 C-87.90589844 131.30132812 -87.81179687 130.60265625 -87.71484375 129.8828125 C-86.86010649 126.43583927 -85.3938125 123.9132274 -83.5625 120.875 C-82.94503906 119.84117187 -82.32757813 118.80734375 -81.69140625 117.7421875 C-80.49684655 115.80551104 -79.2621945 113.89329175 -78 112 C-78.67708008 111.75612549 -79.35416016 111.51225098 -80.05175781 111.26098633 C-83.61134163 109.73852439 -86.8644637 107.81911818 -90.171875 105.82421875 C-90.85372864 105.41718216 -91.53558228 105.01014557 -92.23809814 104.59077454 C-94.41078516 103.29307949 -96.58053731 101.99057696 -98.75 100.6875 C-101.5978242 98.98117227 -104.4469035 97.27695737 -107.296875 95.57421875 C-107.97512329 95.16871796 -108.65337158 94.76321716 -109.35217285 94.34542847 C-114.1831631 91.46538078 -119.05834024 88.686889 -124 86 C-124.928125 86.639375 -125.85625 87.27875 -126.8125 87.9375 C-132.66312564 91.72319894 -138.21031826 91.49592629 -145 91 C-148.375 89.8125 -148.375 89.8125 -151 88 C-152.03125 87.319375 -153.0625 86.63875 -154.125 85.9375 C-158.60889568 82.00819141 -160.45127274 76.39315019 -161.3828125 70.6328125 C-161.67487764 65.00569088 -160.24591521 60.5925178 -157 56 C-151.60545289 50.60545289 -146.18885059 47.878509 -138.5625 47.5625 C-130.0295208 47.85432555 -125.16252945 51.32456166 -119.4453125 57.4140625 C-117.90881144 60.16315359 -117.76300008 61.80124525 -117.421875 64.88671875 C-116.85324338 68.02081807 -116.45774564 69.56017922 -114.14208984 71.78515625 C-111.53541441 73.43361288 -108.89402463 74.82882885 -106.125 76.1875 C-104.03439841 77.26676243 -101.94459028 78.34756289 -99.85546875 79.4296875 C-98.18943604 80.27611816 -98.18943604 80.27611816 -96.48974609 81.13964844 C-92.80576774 83.10354343 -89.28164362 85.24287875 -85.73828125 87.4453125 C-74.78045506 94.91068963 -74.78045506 94.91068963 -62.46533203 97.88427734 C-57.65976783 96.39560289 -54.561047 93.42581737 -51 90 C-48.65625 89.1875 -48.65625 89.1875 -47 89 C-47.0825 87.783125 -47.165 86.56625 -47.25 85.3125 C-47.22780804 82.18343389 -46.97367395 80.94844482 -45.5 78.0625 C-42.15227428 75.30062628 -39.30861692 74.66725533 -35 75 C-32 76.4375 -32 76.4375 -30 78 C-29.9175 77.071875 -29.835 76.14375 -29.75 75.1875 C-29 72 -29 72 -27.5 70.0625 C-23.65839904 68.42981959 -20.00154866 69.01987851 -16 70 C-15.01 70.66 -14.02 71.32 -13 72 C-12.48050781 71.72285156 -11.96101562 71.44570312 -11.42578125 71.16015625 C-10.72839844 70.79792969 -10.03101563 70.43570313 -9.3125 70.0625 C-8.62800781 69.70285156 -7.94351563 69.34320313 -7.23828125 68.97265625 C-4.83499121 67.92829461 -2.56884248 67.47805396 0 67 C-0.30292969 66.28344238 -0.60585937 65.56688477 -0.91796875 64.82861328 C-2.282325 61.59561373 -3.6412266 58.36034965 -5 55.125 C-5.71542969 53.43310547 -5.71542969 53.43310547 -6.4453125 51.70703125 C-6.89648438 50.63066406 -7.34765625 49.55429688 -7.8125 48.4453125 C-8.23144531 47.45031738 -8.65039062 46.45532227 -9.08203125 45.43017578 C-10 43 -10 43 -10 41 C-10.94359375 40.99613281 -10.94359375 40.99613281 -11.90625 40.9921875 C-19.94927786 40.62879769 -24.13980904 38.04803481 -29.60546875 32.31640625 C-34.24552811 26.27263146 -33.91031125 19.29099758 -33 12 C-31.07773517 5.11635889 -26.80954877 1.16217633 -20.6875 -2.3125 C-13.54469947 -4.13972804 -6.60406185 -3.22972368 0 0 Z " fill="#126B14" transform="translate(189,28)"/>
<path d="M0 0 C4.42198523 2.60223822 8.24018014 6.00945744 10.75 10.5 C10.95685111 12.12717076 11.14787804 13.75638654 11.328125 15.38671875 C11.89675662 18.52081807 12.29225436 20.06017922 14.60791016 22.28515625 C17.21458559 23.93361288 19.85597537 25.32882885 22.625 26.6875 C24.71560159 27.76676243 26.80540972 28.84756289 28.89453125 29.9296875 C30.56056396 30.77611816 30.56056396 30.77611816 32.26025391 31.63964844 C35.94423226 33.60354343 39.46835638 35.74287875 43.01171875 37.9453125 C53.96954494 45.41068963 53.96954494 45.41068963 66.28466797 48.38427734 C71.09023217 46.89560289 74.188953 43.92581737 77.75 40.5 C80.09375 39.6875 80.09375 39.6875 81.75 39.5 C81.6675 38.283125 81.585 37.06625 81.5 35.8125 C81.52219196 32.68343389 81.77632605 31.44844482 83.25 28.5625 C86.14735144 26.17218507 88.01042954 25.71338471 91.65234375 25.25 C94.94773986 25.6427474 96.29303425 26.18414377 98.75 28.5 C99.62781937 32.08714351 99.67909528 35.69527652 99.8125 39.375 C99.94597653 41.66188677 100.08689457 43.94834862 100.234375 46.234375 C100.31107422 47.42998047 100.38777344 48.62558594 100.46679688 49.85742188 C101.76148393 66.50977612 104.78992222 83.07743556 107.4375 99.5625 C107.54591217 100.23774719 107.65432434 100.91299438 107.76602173 101.60870361 C108.82978948 108.67666217 108.82978948 108.67666217 110.29223633 115.66577148 C111.06532309 118.76347859 111.0897689 121.3288236 110.75 124.5 C108.375 126.8125 108.375 126.8125 105.75 128.5 C105.09 129.16 104.43 129.82 103.75 130.5 C101.625 130.125 101.625 130.125 99.75 129.5 C99.34007812 130.0775 98.93015625 130.655 98.5078125 131.25 C97.96898437 131.9925 97.43015625 132.735 96.875 133.5 C96.34132812 134.2425 95.80765625 134.985 95.2578125 135.75 C94.76023437 136.3275 94.26265625 136.905 93.75 137.5 C93.09 137.5 92.43 137.5 91.75 137.5 C91.75 138.16 91.75 138.82 91.75 139.5 C93.06355469 139.56058594 94.37710938 139.62117187 95.73046875 139.68359375 C97.46615541 139.76803256 99.20183198 139.85267888 100.9375 139.9375 C101.80181641 139.97681641 102.66613281 140.01613281 103.55664062 140.05664062 C107.70914122 140.26347016 111.69537862 140.50103531 115.75 141.5 C114.33005967 145.22309713 112.68135786 148.73103101 110.8125 152.25 C110.30847656 153.21421875 109.80445313 154.1784375 109.28515625 155.171875 C107.75 157.5 107.75 157.5 104.75 158.5 C81.3273931 161.20090552 54.07138486 148.30825944 36.12060547 134.15258789 C31.09450339 130.07154459 26.46729751 125.89380865 22.6875 120.625 C20.19398651 117.89017875 18.36621934 117.74656041 14.75 117.5 C16.73 116.51 16.73 116.51 18.75 115.5 C18.09 114.654375 17.43 113.80875 16.75 112.9375 C14.43821764 108.96412407 14.09255881 107.01990817 14.75 102.5 C16.90978869 98.61238036 18.26827251 97.66860462 22.5 96.1875 C23.5725 95.960625 24.645 95.73375 25.75 95.5 C25.09 94.51 24.43 93.52 23.75 92.5 C23.24164708 88.6026276 23.42037817 86.99443274 25.625 83.6875 C28.93595251 80.27916653 31.0804146 80.36610363 35.77734375 80.26953125 C37.75 80.5 37.75 80.5 40.75 82.5 C40.84410156 81.80132812 40.93820313 81.10265625 41.03515625 80.3828125 C41.88989351 76.93583927 43.3561875 74.4132274 45.1875 71.375 C45.80496094 70.34117187 46.42242187 69.30734375 47.05859375 68.2421875 C48.25315345 66.30551104 49.4878055 64.39329175 50.75 62.5 C50.07291992 62.25612549 49.39583984 62.01225098 48.69824219 61.76098633 C45.13865837 60.23852439 41.8855363 58.31911818 38.578125 56.32421875 C37.89627136 55.91718216 37.21441772 55.51014557 36.51190186 55.09077454 C34.33921484 53.79307949 32.16946269 52.49057696 30 51.1875 C27.1521758 49.48117227 24.3030965 47.77695737 21.453125 46.07421875 C20.77487671 45.66871796 20.09662842 45.26321716 19.39782715 44.84542847 C14.5668369 41.96538078 9.69165976 39.186889 4.75 36.5 C3.821875 37.139375 2.89375 37.77875 1.9375 38.4375 C-3.91312564 42.22319894 -9.46031826 41.99592629 -16.25 41.5 C-19.625 40.3125 -19.625 40.3125 -22.25 38.5 C-23.28125 37.819375 -24.3125 37.13875 -25.375 36.4375 C-29.85889568 32.50819141 -31.70127274 26.89315019 -32.6328125 21.1328125 C-32.92487764 15.50569088 -31.49591521 11.0925178 -28.25 6.5 C-20.63068614 -1.11931386 -10.22913749 -4.46904065 0 0 Z " fill="#16780A" transform="translate(60.25,77.5)"/>
<path d="M0 0 C0.43828125 0.35191406 0.8765625 0.70382813 1.328125 1.06640625 C20.13659705 15.70796071 41.85350752 22.86821335 65.5078125 23.82421875 C68 24 68 24 69 25 C70.9615534 24.90702117 72.92010034 24.74879044 74.875 24.5625 C80.93225204 23.98596637 86.9221415 23.94424615 93 24 C92.72849121 24.83845459 92.45698242 25.67690918 92.17724609 26.54077148 C76.98534332 73.68195942 69.23460396 120.51352623 68 170 C65.17998673 171.41000664 63.12992745 171.24548451 60 171 C55.36764706 168.73529412 55.36764706 168.73529412 54 166 C53.92818179 163.28239892 53.90700494 160.59140612 53.9375 157.875 C53.94201172 157.12089844 53.94652344 156.36679687 53.95117188 155.58984375 C53.96296501 153.72652873 53.98090058 151.86325445 54 150 C53.31164062 149.79761719 52.62328125 149.59523438 51.9140625 149.38671875 C47.98977502 147.51926291 45.39960652 144.89060979 42.375 141.8125 C41.76108398 141.18956055 41.14716797 140.56662109 40.51464844 139.92480469 C10.74836233 109.04633768 -1.7345085 66.85432049 -1.28125 24.74731445 C-1.24932106 21.74873776 -1.24018603 18.75068509 -1.234375 15.75195312 C-1.22523163 13.84113932 -1.21486456 11.93033087 -1.203125 10.01953125 C-1.19887512 9.12498734 -1.19462524 8.23044342 -1.19024658 7.30879211 C-1.11737447 1.11737447 -1.11737447 1.11737447 0 0 Z " fill="#0A4713" transform="translate(66,232)"/>
<path d="M0 0 C1.359375 1.35083008 1.359375 1.35083008 2.75 3.26953125 C3.27037842 3.98367187 3.79075684 4.6978125 4.3269043 5.43359375 C5.15508667 6.61115234 5.15508667 6.61115234 6 7.8125 C6.57596924 8.62203125 7.15193848 9.4315625 7.74536133 10.265625 C13.24645065 18.12627059 18.06532439 26.31002896 22.71337891 34.69580078 C23.93497029 36.88353883 25.18603937 39.05091836 26.44921875 41.21484375 C34.23461575 54.6886665 40.58647793 68.83819265 47 83 C51.85251644 82.66347233 51.85251644 82.66347233 55.875 80.3125 C57.21787191 77.55215218 57.65475314 75.03817241 58 72 C59.11375 71.71125 60.2275 71.4225 61.375 71.125 C65.00291092 70.30758671 65.00291092 70.30758671 67 68 C67.24212873 66.01871492 67.24212873 66.01871492 67.125 63.875 C67.08375 62.59625 67.0425 61.3175 67 60 C69.64 60.33 72.28 60.66 75 61 C76.43624235 65.30872705 76.34724893 69.1769431 75.5 73.625 C73.56353082 76.6910762 71.34785587 77.79437192 68.234375 79.56640625 C65.87553422 81.07985829 64.15630393 82.76150803 62.1875 84.75 C42.60942995 102.64030539 8.36736399 108.90778556 -17 112 C-17.71188477 112.09788818 -18.42376953 112.19577637 -19.15722656 112.29663086 C-27.94138053 113.37148913 -36.79207378 113.10840558 -45.625 113.0625 C-47.31380076 113.05747477 -49.00260296 113.05291368 -50.69140625 113.04882812 C-54.79430711 113.03790399 -58.89713727 113.0206958 -63 113 C-62.195625 112.38125 -61.39125 111.7625 -60.5625 111.125 C-57.96125481 109.25835959 -57.96125481 109.25835959 -57 107 C-56.113125 107.061875 -55.22625 107.12375 -54.3125 107.1875 C-50.62170254 106.97858694 -48.93635736 106.18129404 -46 104 C-42.9095509 97.81910179 -45.50689185 89.28729581 -47.0625 82.9375 C-47.28437988 82.02427979 -47.50625977 81.11105957 -47.73486328 80.17016602 C-50.85910513 67.94547534 -56.02391172 57.07323768 -62.6171875 46.35546875 C-64 44 -64 44 -65 41 C-62.02440216 41.31498446 -61.03140015 41.96736037 -58.921875 44.16015625 C-52.82635567 52.30578729 -48.19044888 60.73904028 -44 70 C-43.71495605 70.61746094 -43.42991211 71.23492187 -43.13623047 71.87109375 C-39.28340153 80.32685991 -36.97597431 88.51498843 -35.46777344 97.65551758 C-34.65090645 102.25304967 -33.98612345 105.12731885 -30 108 C-26.58905085 109.16585191 -26.58905085 109.16585191 -23 109 C-20.07139596 107.20954506 -20.07139596 107.20954506 -18 105 C-18.96137466 97.96068162 -21.66685068 91.73384606 -24.3125 85.1875 C-24.57744263 84.5281546 -24.84238525 83.8688092 -25.11535645 83.18948364 C-32.05376569 65.97149751 -39.39328593 48.68249706 -49.671875 33.16015625 C-51 31 -51 31 -51 29 C-48.32758661 26.62422888 -45.30774907 24.66539822 -42.375 22.625 C-41.48796387 22.00520264 -40.60092773 21.38540527 -39.68701172 20.74682617 C-29.88963519 14.0381808 -19.54161736 8.43747457 -9 3 C-7.86304688 2.39542969 -6.72609375 1.79085937 -5.5546875 1.16796875 C-3 0 -3 0 0 0 Z " fill="#0A4D1B" transform="translate(320,131)"/>
<path d="M0 0 C2.96970845 2.70767535 2.90390912 5.03156118 3.125 8.9375 C2.444375 9.205625 1.76375 9.47375 1.0625 9.75 C-20.556458 18.48957876 -41.01935848 29.88511531 -58.875 44.9375 C-60.04537342 45.90388749 -61.21594995 46.87002904 -62.38671875 47.8359375 C-71.66139288 55.56589383 -81.11961091 63.72252825 -88.5 73.328125 C-89.28375 74.18921875 -90.0675 75.0503125 -90.875 75.9375 C-94.8125 75.8125 -94.8125 75.8125 -97.1171875 75.37109375 C-102.64240243 74.50239848 -108.29491023 74.86606215 -113.875 74.9375 C-113.97989746 73.89130493 -113.97989746 73.89130493 -114.08691406 72.82397461 C-115.72522808 56.72661754 -117.85594402 40.83540135 -120.875 24.9375 C-114.90825384 23.61155641 -108.94916385 23.8490413 -102.875 23.9375 C-101.30171143 27.72503248 -99.73533273 31.51534014 -98.17529297 35.30834961 C-97.64365608 36.59819346 -97.11013978 37.88726435 -96.57470703 39.17553711 C-95.80527613 41.02773857 -95.04316265 42.88297446 -94.28125 44.73828125 C-93.82041016 45.85372314 -93.35957031 46.96916504 -92.88476562 48.1184082 C-91.875 50.9375 -91.875 50.9375 -91.875 53.9375 C-90.71871094 52.96296875 -90.71871094 52.96296875 -89.5390625 51.96875 C-88.53617188 51.1334375 -87.53328125 50.298125 -86.5 49.4375 C-85.50226563 48.6021875 -84.50453125 47.766875 -83.4765625 46.90625 C-80.875 44.9375 -80.875 44.9375 -78.875 44.9375 C-79.07544922 44.41798264 -79.27589844 43.89846527 -79.48242188 43.36320496 C-81.56460685 37.96375495 -83.63980568 32.56165815 -85.7109375 27.15795898 C-86.4851827 25.14066701 -87.26121663 23.12406063 -88.0390625 21.1081543 C-89.15573704 18.21320404 -90.26599066 15.31586261 -91.375 12.41796875 C-91.72498047 11.51475388 -92.07496094 10.611539 -92.43554688 9.68095398 C-92.75587891 8.84030899 -93.07621094 7.999664 -93.40625 7.13354492 C-93.69048828 6.39408127 -93.97472656 5.65461761 -94.26757812 4.89274597 C-94.875 2.9375 -94.875 2.9375 -94.875 -0.0625 C-49.78671891 -0.3307107 -49.78671891 -0.3307107 -32.64550781 3.65332031 C-25.78047201 5.19899775 -21.17153981 4.92143108 -14.9375 1.375 C-9.59182543 -1.39415575 -5.78028434 -2.13619204 0 0 Z " fill="#0B4813" transform="translate(301.875,93.0625)"/>
<path d="M0 0 C5.45328371 4.02156875 7.43555896 9.84520032 10.01760864 15.94168091 C11.40165829 19.19911536 12.83324522 22.43546263 14.265625 25.671875 C14.56553848 26.35024918 14.86545197 27.02862335 15.17445374 27.72755432 C24.10384037 47.79441082 34.08675222 67.53712685 46 86 C46.55397461 86.86125488 47.10794922 87.72250977 47.67871094 88.60986328 C55.32403563 100.42749707 63.35636876 111.89193031 72 123 C72.70511719 123.9075 73.41023438 124.815 74.13671875 125.75 C82.0672885 135.78788139 90.3996577 145.48101926 99.1015625 154.85546875 C101.35150633 157.39707196 101.93704011 158.43336101 102.3125 161.8125 C101.92835642 165.7307645 100.70743683 167.21293267 98 170 C94.7238186 171.6380907 91.52413757 171.69744376 88 171 C85.25858083 169.28394663 83.22330693 167.0757117 81.0625 164.6875 C80.4555127 164.0473999 79.84852539 163.4072998 79.22314453 162.74780273 C74.1994297 157.38948526 69.52778956 151.78115692 65 146 C64.08291952 144.8706137 63.16351389 143.74311276 62.2421875 142.6171875 C49.64978221 127.17764063 38.36419056 111.01091057 28 94 C27.58186035 93.31679688 27.1637207 92.63359375 26.73291016 91.9296875 C23.73236503 87.00323916 20.84010673 82.0204918 18 77 C17.48743652 76.09523926 16.97487305 75.19047852 16.44677734 74.25830078 C8.9150512 60.86041179 2.09178191 47.24171677 -4.25 33.25 C-4.57632416 32.53086426 -4.90264832 31.81172852 -5.23886108 31.07080078 C-13.88624288 11.95048794 -13.88624288 11.95048794 -13 6 C-8.96840543 1.22574328 -6.30545677 -0.74181844 0 0 Z " fill="#0B5425" transform="translate(201,251)"/>
<path d="M0 0 C1.56124825 2.56492169 2.71547311 4.87122203 3.86328125 7.6171875 C4.21221436 8.40841507 4.56114746 9.19964264 4.9206543 10.0148468 C6.06865545 12.627674 7.19013235 15.25107245 8.3125 17.875 C9.10946746 19.69924455 9.90856488 21.52255996 10.7097168 23.3449707 C12.35091304 27.08046174 13.98435874 30.81920082 15.61328125 34.56005859 C18.75879652 41.75853474 22.03226033 48.89688119 25.31970215 56.03137207 C26.964138 59.60270742 28.59939581 63.17823389 30.234375 66.75390625 C30.54957092 67.4431015 30.86476685 68.13229675 31.18951416 68.84237671 C46.55074363 102.45368311 46.55074363 102.45368311 52.33984375 117.03125 C53.73145123 120.45766419 55.28768919 123.79745997 56.8515625 127.1484375 C62.00667484 138.24685697 66.47931685 149.63191161 71 161 C71.36867188 161.92280762 71.73734375 162.84561523 72.1171875 163.79638672 C76.52765382 174.92725835 80.17997543 186.12969269 82 198 C81.67 198.66 81.34 199.32 81 200 C76.08896772 195.41857319 72.15580069 190.76913357 68.625 185.0625 C68.13314209 184.27689697 67.64128418 183.49129395 67.13452148 182.68188477 C51.46188255 157.09033863 38.7061428 129.70175644 26.5625 102.3125 C25.8588173 100.72663857 25.15512239 99.14078256 24.45141602 97.55493164 C22.6483959 93.49057176 20.8470337 89.425479 19.04602051 85.36022949 C18.04410909 83.09952728 17.04128048 80.83923464 16.03808594 78.57910156 C8.88821653 62.46840212 1.81565578 46.32705894 -5.125 30.125 C-5.43728546 29.39610565 -5.74957092 28.6672113 -6.07131958 27.91622925 C-7.79380916 23.89289301 -9.51034756 19.86709221 -11.21936035 15.8380127 C-11.9895371 14.02463486 -12.76378417 12.21298751 -13.53808594 10.40136719 C-14.22692871 8.77569824 -14.22692871 8.77569824 -14.9296875 7.1171875 C-15.33171387 6.17214355 -15.73374023 5.22709961 -16.14794922 4.25341797 C-17 2 -17 2 -17 0 C-15.10507254 -0.19644384 -13.20899097 -0.38177288 -11.3125 -0.5625 C-9.72888672 -0.71912109 -9.72888672 -0.71912109 -8.11328125 -0.87890625 C-2.80980335 -1.08518958 -2.80980335 -1.08518958 0 0 Z " fill="#DB9D40" transform="translate(286,264)"/>
<path d="M0 0 C4.42198523 2.60223822 8.24018014 6.00945744 10.75 10.5 C10.95685111 12.12717076 11.14787804 13.75638654 11.328125 15.38671875 C11.89675662 18.52081807 12.29225436 20.06017922 14.60791016 22.28515625 C17.21404763 23.93327268 19.85810034 25.32607159 22.625 26.6875 C23.63933105 27.2230249 24.65366211 27.7585498 25.69873047 28.31030273 C27.88869129 29.46367325 30.0864839 30.60226939 32.29101562 31.72753906 C35.80364527 33.52748904 39.28894716 35.37416124 42.765625 37.2421875 C43.35095505 37.55589294 43.9362851 37.86959839 44.53935242 38.19281006 C47.50666551 39.78459325 50.46935078 41.38447637 53.42700195 42.99414062 C58.91905637 45.97003673 64.3988996 48.83598329 70.08984375 51.4140625 C83.4020425 57.70449069 83.4020425 57.70449069 85.89990234 62.88476562 C87.38454238 67.97010607 87.7892417 73.005128 87.69433594 78.28686523 C87.75711211 80.78276863 88.20391991 83.06802001 88.75 85.5 C81.50929602 82.07126003 74.6730054 78.14610638 67.85671997 73.94259644 C64.81244783 72.06581836 61.75959691 70.20309179 58.70703125 68.33984375 C58.06686569 67.94879959 57.42670013 67.55775543 56.76713562 67.15486145 C47.84682088 61.71585729 38.84621209 56.41113841 29.85107422 51.09716797 C29.21571243 50.72108398 28.58035065 50.345 27.92573547 49.95751953 C26.67854216 49.22020171 25.43002139 48.48512411 24.18009949 47.75244141 C21.10046515 45.93805849 18.07545301 44.0745653 15.09936523 42.09423828 C14.51404526 41.71159317 13.92872528 41.32894806 13.32566833 40.93470764 C11.72746876 39.8837862 10.14252472 38.81278465 8.55859375 37.74047852 C5.81400023 36.18399607 5.81400023 36.18399607 3.0012207 37.19311523 C0.63876772 38.4903853 0.63876772 38.4903853 -1.70703125 40.09375 C-6.30440163 42.63607464 -11.16204212 42.17102053 -16.25 41.5 C-19.625 40.3125 -19.625 40.3125 -22.25 38.5 C-23.28125 37.819375 -24.3125 37.13875 -25.375 36.4375 C-29.85889568 32.50819141 -31.70127274 26.89315019 -32.6328125 21.1328125 C-32.92487764 15.50569088 -31.49591521 11.0925178 -28.25 6.5 C-20.63068614 -1.11931386 -10.22913749 -4.46904065 0 0 Z " fill="#DC9D41" transform="translate(60.25,77.5)"/>
<path d="M0 0 C4.42247981 2.98260266 7.62062245 6.17844608 10 11 C10.99093765 17.97227302 10.7803045 24.28843777 6.77734375 30.21875 C4.9862604 34.32294098 7.76588998 39.27184387 9.28515625 43.17578125 C9.73310547 44.33271484 10.18105469 45.48964844 10.64257812 46.68164062 C11.11115234 47.87982422 11.57972656 49.07800781 12.0625 50.3125 C12.77116211 52.1387793 12.77116211 52.1387793 13.49414062 54.00195312 C14.65914036 57.00271003 15.82909305 60.00154318 17 63 C23.27 63.33 29.54 63.66 36 64 C36 64.33 36 64.66 36 65 C30.06 65 24.12 65 18 65 C19.95675162 70.17798372 21.91379457 75.35585538 23.87158203 80.53344727 C24.53711838 82.293799 25.20248474 84.05421502 25.86767578 85.81469727 C26.82539598 88.34929161 27.78373299 90.88365201 28.7421875 93.41796875 C29.03809784 94.20149216 29.33400818 94.98501556 29.6388855 95.7922821 C29.91902496 96.53267227 30.19916443 97.27306244 30.48779297 98.03588867 C30.74848572 98.72645355 31.00917847 99.41701843 31.277771 100.12850952 C31.88959858 101.7139201 32.54225406 103.28348126 33.20361328 104.84887695 C34 107 34 107 34 110 C32.171875 111.75390625 32.171875 111.75390625 29.75 113.5625 C28.96109375 114.16191406 28.1721875 114.76132813 27.359375 115.37890625 C25.28315466 116.80544837 23.25893358 117.9041731 21 119 C20.57178955 117.94200195 20.1435791 116.88400391 19.70239258 115.79394531 C18.09086387 111.81273982 16.47852813 107.83186156 14.8659668 103.85107422 C14.17239231 102.13859622 13.47902744 100.42603331 12.78588867 98.71337891 C11.78100815 96.23056219 10.77539602 93.74804311 9.76953125 91.265625 C9.44389191 90.46112915 9.11825256 89.6566333 8.78274536 88.82775879 C6.51723154 83.24190619 4.19683767 77.68270476 1.8190918 72.14355469 C1 70 1 70 1 68 C0.01 67.67 -0.98 67.34 -2 67 C-1.34 67 -0.68 67 0 67 C-0.30292969 66.28344238 -0.60585937 65.56688477 -0.91796875 64.82861328 C-2.282325 61.59561373 -3.6412266 58.36034965 -5 55.125 C-5.47695312 53.99707031 -5.95390625 52.86914062 -6.4453125 51.70703125 C-6.89648438 50.63066406 -7.34765625 49.55429688 -7.8125 48.4453125 C-8.23144531 47.45031738 -8.65039062 46.45532227 -9.08203125 45.43017578 C-10 43 -10 43 -10 41 C-10.94359375 40.99613281 -10.94359375 40.99613281 -11.90625 40.9921875 C-19.94927786 40.62879769 -24.13980904 38.04803481 -29.60546875 32.31640625 C-34.24552811 26.27263146 -33.91031125 19.29099758 -33 12 C-31.07773517 5.11635889 -26.80954877 1.16217633 -20.6875 -2.3125 C-13.54469947 -4.13972804 -6.60406185 -3.22972368 0 0 Z " fill="#DB9D41" transform="translate(189,28)"/>
<path d="M0 0 C0.66 0.33 1.32 0.66 2 1 C2.67173935 3.91901282 3.23452715 6.80263713 3.75 9.75 C10.27801859 44.27637595 22.34529144 90.39185034 45 118 C44.34 118 43.68 118 43 118 C42.9071875 118.86625 42.9071875 118.86625 42.8125 119.75 C41.6282104 123.02957119 39.93012878 124.17680876 37 126 C33.36791859 126.6053469 31.6501252 126.36470438 28.4375 124.5625 C25.15140722 121.10788964 23.12871007 117.23930346 21 113 C20.32453125 113.04640625 19.6490625 113.0928125 18.953125 113.140625 C11.61269147 113.43763676 11.61269147 113.43763676 8.375 111.125 C7 109 7 109 7 107 C6.195625 107.495 6.195625 107.495 5.375 108 C2.31258861 109.28943638 0.30060561 109.40415579 -3 109 C-6.47822462 106.78658433 -8.55433585 104.84874062 -10 101 C-10.21459961 97.70825195 -10.21459961 97.70825195 -10.15234375 93.73828125 C-10.14112488 93.01186935 -10.12990601 92.28545746 -10.11834717 91.53703308 C-10.07325693 89.12824093 -10.00776429 86.72068366 -9.9375 84.3125 C-9.91555573 83.48153809 -9.89361145 82.65057617 -9.8710022 81.79443359 C-9.09124139 54.37192039 -5.57068441 26.85754552 0 0 Z " fill="#16780A" transform="translate(161,312)"/>
<path d="M0 0 C0.47308594 0.36351562 0.94617188 0.72703125 1.43359375 1.1015625 C2.42552734 1.85566406 2.42552734 1.85566406 3.4375 2.625 C4.39462891 3.35589844 4.39462891 3.35589844 5.37109375 4.1015625 C7.85365754 6.00994246 7.85365754 6.00994246 10.26489258 7.09716797 C12.94596085 8.51841246 14.91403709 9.78596343 17 12 C18.19115295 16.29647981 17.97184498 20.44568883 17.8125 24.875 C17.81184302 27.39846463 17.82378409 29.92196071 17.84765625 32.4453125 C17.85812988 33.71149414 17.86860352 34.97767578 17.87939453 36.28222656 C18.36237251 51.17046267 21.89844649 66.05277038 27 80 C27.44085938 81.23621094 27.88171875 82.47242188 28.3359375 83.74609375 C33.44895893 97.56992276 40.62577149 112.37661989 51.609375 122.48046875 C54.0033462 124.77357038 54.9576786 126.63436275 55.3359375 129.90234375 C55.41442395 136.62863224 54.84320716 143.32962906 54 150 C48.93411787 148.51059271 45.97978206 145.48104825 42.375 141.8125 C41.76108398 141.18956055 41.14716797 140.56662109 40.51464844 139.92480469 C10.74836233 109.04633768 -1.7345085 66.85432049 -1.28125 24.74731445 C-1.24932106 21.74873776 -1.24018603 18.75068509 -1.234375 15.75195312 C-1.22523163 13.84113932 -1.21486456 11.93033087 -1.203125 10.01953125 C-1.19887512 9.12498734 -1.19462524 8.23044342 -1.19024658 7.30879211 C-1.11737447 1.11737447 -1.11737447 1.11737447 0 0 Z " fill="#17790B" transform="translate(66,232)"/>
<path d="M0 0 C1.22727837 3.68183511 1.238344 7.1412072 1.30859375 10.98046875 C1.3314872 12.17576958 1.3314872 12.17576958 1.35484314 13.3952179 C1.64015569 31.72840973 1.17869008 48.51171462 -5 66 C-5.24556641 66.72461426 -5.49113281 67.44922852 -5.74414062 68.19580078 C-10.50480563 82.01549982 -17.29764344 95.03324059 -27 106 C-31.55309998 102.0423826 -33.35540633 96.14549111 -35.75 90.75 C-36.52923828 89.06970703 -36.52923828 89.06970703 -37.32421875 87.35546875 C-40.73118776 79.7010848 -41.65587396 75.52945214 -38.73046875 67.52734375 C-38.22128906 66.34269531 -37.71210938 65.15804687 -37.1875 63.9375 C-29.48105152 45.32129237 -27.82176213 26.89529365 -27 7 C-26.03320312 6.74605469 -25.06640625 6.49210937 -24.0703125 6.23046875 C-17.29277753 4.4412623 -10.54339264 2.62170489 -3.85546875 0.515625 C-2 0 -2 0 0 0 Z " fill="#0A4712" transform="translate(355,250)"/>
<path d="M0 0 C2.52163182 0.93539524 5.04230241 1.87325455 7.5625 2.8125 C8.26697266 3.07353516 8.97144531 3.33457031 9.69726562 3.60351562 C14.1906787 5.28078041 18.60589494 7.07721815 23 9 C20.34989484 50.30508728 -6.499259 85.24818358 -35 113 C-38.14485158 110.091026 -39.57816232 106.84362085 -41.1875 102.9375 C-41.46013672 102.30005859 -41.73277344 101.66261719 -42.01367188 101.00585938 C-44 96.28148496 -44 96.28148496 -44 94 C-42.6015625 92.6953125 -42.6015625 92.6953125 -40.625 91.125 C-15.71793402 69.8263782 -5.87716598 37.59918371 -1.38549805 6.35571289 C-1.0319361 4.1951561 -0.56605427 2.11361548 0 0 Z " fill="#0B4814" transform="translate(375,270)"/>
<path d="M0 0 C3.48667696 0.60691713 6.53889853 1.5449383 9.8125 2.875 C15.34334492 4.98306794 20.83934863 5.984321 26.69262695 6.69677734 C28.69140625 6.99609375 28.69140625 6.99609375 32 8 C33.35546875 10.12890625 33.35546875 10.12890625 34 13 C34.28359375 14.1653125 34.5671875 15.330625 34.859375 16.53125 C35.156335 17.85414759 35.45320604 19.17706515 35.75 20.5 C37.28383907 27.12612399 39.57146259 32.78075918 42.92578125 38.7421875 C45.57454823 46.77517537 42.25769775 56.21211679 40.5625 64.25 C38.73050422 73.14255338 37.0810325 81.98063927 36 91 C28.68353596 87.87759949 24.99030843 79.76708459 21.75 72.875 C21.37576904 72.08077637 21.00153809 71.28655273 20.6159668 70.46826172 C12.56936772 52.71357294 7.20177809 33.48961052 2.05859375 14.734375 C1.18767196 11.22007211 1.18767196 11.22007211 0 9 C-0.06950541 7.45976004 -0.08452357 5.91665012 -0.0625 4.375 C-0.05347656 3.55773437 -0.04445313 2.74046875 -0.03515625 1.8984375 C-0.02355469 1.27195313 -0.01195313 0.64546875 0 0 Z " fill="#15780A" transform="translate(88,247)"/>
<path d="M0 0 C2.02520357 3.03780535 3.00660773 5.60923951 4.1796875 9.0546875 C4.60757568 10.29460449 5.03546387 11.53452148 5.47631836 12.81201172 C5.81709915 13.8039151 5.81709915 13.8039151 6.1647644 14.81585693 C26.35309273 78.93192939 26.35309273 78.93192939 67 130.0625 C69 132 69 132 69.125 135.5 C67.79128231 139.64934393 66.85602546 140.98816063 63 143 C58.53801283 143.16525878 55.80066821 142.15569326 52.375 139.4375 C49.37413439 136.63713766 47.31301799 133.62961536 45.2578125 130.09765625 C41.54124912 123.6287216 41.54124912 123.6287216 36 119 C34.87824325 116.88097877 33.85946459 114.77993866 32.875 112.59765625 C32.57195953 111.93760086 32.26891907 111.27754547 31.95669556 110.5974884 C30.9626253 108.42291025 29.98004807 106.24343119 29 104.0625 C28.66297058 103.31526672 28.32594116 102.56803345 27.97869873 101.79815674 C15.74019216 74.60720771 5.50130178 46.80649944 -0.625 17.5625 C-0.78983887 16.79502441 -0.95467773 16.02754883 -1.12451172 15.23681641 C-2.08371826 10.2148222 -1.92599747 6.03720313 -1 1 C-0.67 0.67 -0.34 0.34 0 0 Z " fill="#0A4813" transform="translate(182,298)"/>
<path d="M0 0 C0.33 0 0.66 0 1 0 C1 3.96 1 7.92 1 12 C2.29156006 12.41934814 3.58312012 12.83869629 4.91381836 13.27075195 C9.80670524 14.90362313 14.59404465 16.74420324 19.37890625 18.66796875 C20.25693405 19.0200943 21.13496185 19.37221985 22.03959656 19.73501587 C24.88297813 20.87998348 27.72330192 22.03219913 30.5625 23.1875 C31.53288208 23.5820639 32.50326416 23.97662781 33.50305176 24.38314819 C46.64752139 29.75021638 59.57550941 35.40998122 72.25 41.8125 C72.90404816 42.14220795 73.55809631 42.47191589 74.23196411 42.81161499 C80.99695296 46.23989368 87.75763474 49.6753763 94 54 C94 54.66 94 55.32 94 56 C93.12706299 55.85288574 92.25412598 55.70577148 91.35473633 55.55419922 C88.34739034 55.05738855 85.3381764 54.58745038 82.32421875 54.1328125 C81.24720703 53.96910156 80.17019531 53.80539062 79.06054688 53.63671875 C76.85500921 53.30212068 74.64928692 52.96873674 72.44335938 52.63671875 C70.18660082 52.29280634 67.93117795 51.94004167 65.67700195 51.57958984 C63.10327497 51.17390444 60.53412976 50.79593338 57.95385742 50.43994141 C47.16676462 48.86050235 37.87767728 45.51161966 27.9375 41.125 C26.39117978 40.4588091 24.84396044 39.79470171 23.29589844 39.13256836 C20.91603222 38.11438007 18.53678004 37.09498415 16.16030884 36.06889343 C7.74277612 32.4365878 -0.74878115 28.99318906 -9.25 25.5625 C-11.25403311 24.75126515 -13.25783371 23.93945816 -15.26161194 23.12759399 C-17.84052273 22.08369819 -20.42034456 21.04205428 -23 20 C-23.33 13.73 -23.66 7.46 -24 1 C-21.504375 1.928125 -19.00875 2.85625 -16.4375 3.8125 C-15.66591553 4.09843018 -14.89433105 4.38436035 -14.09936523 4.67895508 C-9.67440612 6.33175936 -5.32748356 8.10637053 -1 10 C-0.67 6.7 -0.34 3.4 0 0 Z " fill="#DC9E42" transform="translate(399,251)"/>
<path d="M0 0 C4.29011747 3.88768167 6.95296469 7.92149792 9.6875 13 C10.11756348 13.79124268 10.54762695 14.58248535 10.99072266 15.39770508 C18.46754192 29.31569391 24.9975094 43.54413527 30.80279541 58.23330688 C31.34579856 59.60645467 31.8927242 60.97805857 32.44378662 62.34799194 C37.96092971 76.12565673 37.96092971 76.12565673 37 83 C34.96204536 86.15554267 33.53275134 87.6672675 29.8046875 88.4765625 C27.25976245 88.63614526 25.45077534 88.74531629 23 88 C19.62926274 84.3644221 17.91312918 80.79054387 16.1875 76.171875 C15.67043301 74.81272392 15.15308749 73.45367877 14.63549805 72.09472656 C14.36909515 71.38578247 14.10269226 70.67683838 13.82821655 69.94641113 C6.56179785 50.67603687 -1.25711807 31.39829528 -12.671875 14.16015625 C-14 12 -14 12 -14 10 C-11.69833213 8.20916148 -9.39761099 6.52740758 -7 4.875 C-6.33226562 4.40707031 -5.66453125 3.93914062 -4.9765625 3.45703125 C-3.32185734 2.29873764 -1.66144693 1.14860235 0 0 Z " fill="#0A4713" transform="translate(283,150)"/>
<path d="M0 0 C3.42559084 1.20358597 5.53258609 2.35892646 8 5 C7.12988281 5.63615234 7.12988281 5.63615234 6.2421875 6.28515625 C0.136626 10.86936497 -6.06267325 15.72405301 -9 23 C-9.27739864 25.48865455 -9.27739864 25.48865455 -9.1875 28.0625 C-9.18105469 28.91972656 -9.17460938 29.77695313 -9.16796875 30.66015625 C-9.08590034 33.15477968 -9.08590034 33.15477968 -8 36 C-4.7 36.33 -1.4 36.66 2 37 C1.9175 38.051875 1.835 39.10375 1.75 40.1875 C1.73161311 43.98469959 1.73161311 43.98469959 3.5625 46.875 C6.76400206 49.66605308 8.78105729 50 13 50 C17.92324128 48.27686555 20.29441971 44.09539319 23.32421875 40.0859375 C27.48654816 34.90485614 33.74471042 33.49490819 40 32 C40.99 32 41.98 32 43 32 C43.53293835 33.74635165 44.05090663 35.49727652 44.5625 37.25 C44.85253906 38.22453125 45.14257812 39.1990625 45.44140625 40.203125 C46.00855431 43.04283139 46.22384088 44.39584543 45 47 C43.109375 48.4921875 43.109375 48.4921875 40.75 49.875 C36.01355791 52.84658947 32.54453386 55.91093228 30 61 C29.68298676 67.28631643 29.68298676 67.28631643 32 73 C12.09780252 68.4071852 -6.69638139 55.95542791 -18 39 C-20.04628818 36.85281004 -22.15052329 34.78539885 -24.29296875 32.734375 C-26.52911854 30.46240588 -26.95761952 29.38142428 -27.3125 26.1875 C-26.92835642 22.2692355 -25.70743683 20.78706733 -23 18 C-19.87293041 16.4364652 -16.42017557 16.60041513 -13 17 C-12.01 17.66 -11.02 18.32 -10 19 C-9.90589844 18.30261719 -9.81179687 17.60523438 -9.71484375 16.88671875 C-8.85791011 13.42620533 -7.38914933 10.86957423 -5.5625 7.8125 C-4.94503906 6.76707031 -4.32757813 5.72164062 -3.69140625 4.64453125 C-2 2 -2 2 0 0 Z " fill="#0C5526" transform="translate(111,141)"/>
<path d="M0 0 C1.73715911 4.23188204 3.46420008 8.46769553 5.18188477 12.70751953 C5.76796766 14.15006013 6.35682761 15.59147563 6.94848633 17.03173828 C7.79716292 19.09900917 8.6358562 21.17008572 9.47265625 23.2421875 C9.74030289 23.88807831 10.00794952 24.53396912 10.28370667 25.19943237 C10.91514947 26.77714634 11.46534351 28.38691482 12 30 C11.67 30.66 11.34 31.32 11 32 C15.29 33.32 19.58 34.64 24 36 C24 39 24 39 22.64453125 40.61328125 C22.03996094 41.17402344 21.43539062 41.73476562 20.8125 42.3125 C18.38306373 44.58676269 16.46189525 46.73498925 14.625 49.5 C13.75875 50.325 12.8925 51.15 12 52 C8.0625 51.875 8.0625 51.875 5.7578125 51.43359375 C0.23259757 50.56489848 -5.41991023 50.92856215 -11 51 C-11.10489746 49.95380493 -11.10489746 49.95380493 -11.21191406 48.88647461 C-12.85022808 32.78911754 -14.98094402 16.89790135 -18 1 C-12.03325384 -0.32594359 -6.07416385 -0.0884587 0 0 Z " fill="#16780A" transform="translate(199,117)"/>
<path d="M0 0 C0.99 0 1.98 0 3 0 C13.84009962 11.19551273 16.79961218 31.16679737 19 46 C4.5140998 45.60636141 -11.19073871 44.6030871 -25 40 C-23.49709111 34.64694248 -21.02437036 30.31163957 -18.125 25.625 C-17.64611328 24.84785645 -17.16722656 24.07071289 -16.67382812 23.27001953 C-13.15530878 17.6519956 -9.43412249 12.20975249 -5.5 6.875 C-4.9961377 6.18229004 -4.49227539 5.48958008 -3.97314453 4.77587891 C-2.72490745 3.12353934 -1.37052319 1.55241362 0 0 Z " fill="#0A4712" transform="translate(231,197)"/>
<path d="M0 0 C2.43789701 1.81576866 4.22140303 4.08312215 6.125 6.4375 C23.97448128 26.94827053 50.23326286 35.31750443 76 41 C76 41.33 76 41.66 76 42 C61.57124124 45.32062752 43.09544735 44.56510617 29 40 C27.80503906 39.62488281 26.61007813 39.24976563 25.37890625 38.86328125 C11.56328182 34.22883369 -4.39264684 26.00503412 -12.19140625 13.015625 C-13.51225065 9.72308532 -12.90150607 7.36562265 -12 4 C-8.35298929 -0.18333582 -5.40863445 -0.73027976 0 0 Z " fill="#0A4813" transform="translate(81,195)"/>
<path d="M0 0 C4.33358342 0.30909176 8.66681422 0.62288661 13 0.9375 C14.83111328 1.06801758 14.83111328 1.06801758 16.69921875 1.20117188 C22.82767368 1.64838345 28.91297653 2.15542549 35 3 C35.57309638 17.16622604 27.14750112 32.35722543 18 42.875 C17.01255142 43.92857237 16.01786013 44.97577825 15 46 C12.43531282 43.70401198 11.08115553 41.46592158 9.625 38.359375 C9.19703125 37.45316406 8.7690625 36.54695313 8.328125 35.61328125 C7.88984375 34.66839844 7.4515625 33.72351563 7 32.75 C6.56171875 31.82058594 6.1234375 30.89117187 5.671875 29.93359375 C4.81817883 28.11563232 3.97327834 26.29351024 3.13793945 24.46704102 C2.45290606 22.98189567 1.74878096 21.50504714 1.00854492 20.04663086 C-1.19729973 15.52666745 -1.16959036 12.01488278 -0.6875 7.0625 C-0.62626953 6.37865234 -0.56503906 5.69480469 -0.50195312 4.99023438 C-0.35059499 3.32529485 -0.17757384 1.66234787 0 0 Z " fill="#0A4712" transform="translate(228,260)"/>
<path d="M0 0 C0.66 0 1.32 0 2 0 C3.0427673 2.17923253 4.05857402 4.36543804 5.0625 6.5625 C5.35705078 7.17158203 5.65160156 7.78066406 5.95507812 8.40820312 C8.04798504 13.0618432 8.34948863 16.09722075 7 21 C5.68399899 23.72846841 4.10680194 26.22541942 2.4375 28.75 C1.77065186 29.78737305 1.77065186 29.78737305 1.09033203 30.84570312 C-2.72345722 36.72228805 -6.76617143 42.41796904 -11 48 C-14.1332924 45.02196083 -16.70760872 41.86843394 -19.25 38.375 C-20.30960937 36.93253906 -20.30960937 36.93253906 -21.390625 35.4609375 C-23 33 -23 33 -23 31 C-22.05125 30.2575 -21.1025 29.515 -20.125 28.75 C-11.27475143 21.40770454 -5.08818607 10.13500477 0 0 Z " fill="#0C5425" transform="translate(285,306)"/>
<path d="M0 0 C0.66 0 1.32 0 2 0 C5.63 8.25 9.26 16.5 13 25 C9.22574924 29.52910091 6.80088057 32.15119189 2.1875 35.375 C1.21167969 36.06335938 0.23585938 36.75171875 -0.76953125 37.4609375 C-1.50558594 37.96882813 -2.24164063 38.47671875 -3 39 C-7.17578373 37.43895935 -9.52361639 34.36042632 -12.25 31 C-12.93835938 30.18015625 -12.93835938 30.18015625 -13.640625 29.34375 C-17 25.26450893 -17 25.26450893 -17 23 C-15.83541525 21.87416298 -14.67007828 20.74909611 -13.50146484 19.62744141 C-9.8102955 15.62657395 -7.11472166 10.72979927 -4.19726562 6.15429688 C-3.68486328 5.36474609 -3.17246094 4.57519531 -2.64453125 3.76171875 C-2.18409424 3.03944092 -1.72365723 2.31716309 -1.24926758 1.57299805 C-0.63088013 0.79436401 -0.63088013 0.79436401 0 0 Z " fill="#0B4813" transform="translate(302,345)"/>
<path d="M0 0 C0.99 0.33 1.98 0.66 3 1 C7.02069955 10.7787384 6.31343177 21.6567517 6 32 C2.86106769 30.82726694 -0.26729897 29.63405975 -3.38671875 28.41015625 C-5.6465825 27.52819861 -7.91879346 26.67657575 -10.20703125 25.87109375 C-17.34288652 23.12947332 -17.34288652 23.12947332 -19.34765625 19.68359375 C-20.09996314 17.44766768 -20.64970379 15.33023132 -21 13 C-20.07058594 12.48050781 -19.14117187 11.96101562 -18.18359375 11.42578125 C-16.93437269 10.72228232 -15.68570999 10.0177913 -14.4375 9.3125 C-13.79578857 8.950354 -13.15407715 8.58820801 -12.49291992 8.21508789 C-9.11469067 6.28595812 -5.90634089 4.30810536 -2.8125 1.9375 C-1.884375 1.298125 -0.95625 0.65875 0 0 Z " fill="#0D4915" transform="translate(393,230)"/>
<path d="M0 0 C0.53293835 1.74635165 1.05090663 3.49727652 1.5625 5.25 C1.85253906 6.22453125 2.14257812 7.1990625 2.44140625 8.203125 C3.00945531 11.04734268 3.22581563 12.39235585 2 15 C0.07421875 16.5625 0.07421875 16.5625 -2.3125 18 C-5.0596656 19.70558622 -7.04139125 21.04484053 -9.25 23.4375 C-9.8275 23.953125 -10.405 24.46875 -11 25 C-15.27719342 24.6625199 -17.90295114 22.93783583 -21.3125 20.4375 C-22.63701172 19.47650391 -22.63701172 19.47650391 -23.98828125 18.49609375 C-24.65214844 18.00238281 -25.31601563 17.50867188 -26 17 C-20.49425023 7.74308005 -15.63337752 3.40316977 -5.234375 0.48046875 C-3 0 -3 0 0 0 Z " fill="#0A4812" transform="translate(154,173)"/>
<path d="M0 0 C0.33 0.66 0.66 1.32 1 2 C0.65855957 2.43642822 0.31711914 2.87285645 -0.03466797 3.32250977 C-6.10270754 11.10322047 -12.0986471 18.90395428 -17.5625 27.125 C-17.9548584 27.71482666 -18.3472168 28.30465332 -18.75146484 28.91235352 C-21.33564155 32.85576911 -23.69438749 36.89067702 -26 41 C-27.21711455 37.34865634 -26.64057843 35.81987276 -25.6875 32.125 C-23.10600192 21.50431612 -21.74598742 10.8953426 -21 0 C-14.53516533 -2.15494489 -6.61925373 -1.4389682 0 0 Z " fill="#0A4713" transform="translate(209,168)"/>
<path d="M0 0 C3.63 0 7.26 0 11 0 C11.70497782 13.84889768 9.92005814 25.71380293 6 39 C5.01 39 4.02 39 3 39 C-4.30681168 23.92043503 -4.30681168 23.92043503 -1 14 C-0.77439324 11.60745424 -0.59151405 9.21071877 -0.4375 6.8125 C-0.35371094 5.54019531 -0.26992188 4.26789063 -0.18359375 2.95703125 C-0.12300781 1.98121094 -0.06242187 1.00539063 0 0 Z " fill="#0C5425" transform="translate(298,261)"/>
<path d="M0 0 C2.64 0.33 5.28 0.66 8 1 C9.43624235 5.30872705 9.34724893 9.1769431 8.5 13.625 C6.56890244 16.68257113 4.36348324 17.78384171 1.26171875 19.5546875 C-1.20278907 21.12958887 -3.13984546 22.91574902 -5.25 24.9375 C-10.17275461 29.45646846 -15.7352463 32.6641558 -22 35 C-22.66 34.67 -23.32 34.34 -24 34 C-23.525625 33.649375 -23.05125 33.29875 -22.5625 32.9375 C-20.32126175 30.15836457 -20.32882342 27.4855283 -20 24 C-18.906875 23.7525 -17.81375 23.505 -16.6875 23.25 C-12.85916036 21.95225775 -11.76340368 21.52680737 -10 18 C-9.27954633 14.84881675 -9.27954633 14.84881675 -9 12 C-7.88625 11.71125 -6.7725 11.4225 -5.625 11.125 C-1.99708908 10.30758671 -1.99708908 10.30758671 0 8 C0.24212873 6.01871492 0.24212873 6.01871492 0.125 3.875 C0.08375 2.59625 0.0425 1.3175 0 0 Z " fill="#0E5628" transform="translate(387,191)"/>
<path d="M0 0 C2.97559784 0.31498446 3.96859985 0.96736037 6.078125 3.16015625 C16.58077923 17.195178 29 38.08696565 29 56 C26.36 56 23.72 56 21 56 C20.8548999 55.32646484 20.7097998 54.65292969 20.56030273 53.95898438 C16.67783336 36.20882445 11.92805659 20.87184087 2.3828125 5.35546875 C1 3 1 3 0 0 Z " fill="#0A4912" transform="translate(255,172)"/>
<path d="M0 0 C2.45110105 1.09262543 2.82045838 1.99027141 3.82617188 4.4465332 C4.12910156 5.16518555 4.43203125 5.88383789 4.74414062 6.62426758 C5.04449219 7.37901367 5.34484375 8.13375977 5.65429688 8.91137695 C5.97011719 9.66999023 6.2859375 10.42860352 6.61132812 11.21020508 C7.38920937 13.08419171 8.14854189 14.96585822 8.90429688 16.84887695 C4.44929688 20.31387695 4.44929688 20.31387695 -0.09570312 23.84887695 C-1.41570312 23.18887695 -2.73570312 22.52887695 -4.09570312 21.84887695 C-4.09570312 21.18887695 -4.09570312 20.52887695 -4.09570312 19.84887695 C-5.11664063 19.50856445 -5.11664063 19.50856445 -6.15820312 19.16137695 C-9.77183927 17.54677357 -13.2384947 15.62374507 -16.09570312 12.84887695 C-16.09570312 11.85887695 -16.09570312 10.86887695 -16.09570312 9.84887695 C-13.88226957 7.94319352 -11.72502741 6.27006901 -9.34570312 4.59887695 C-8.71148437 4.12708008 -8.07726562 3.6552832 -7.42382812 3.16918945 C-2.70234338 -0.19486842 -2.70234338 -0.19486842 0 0 Z " fill="#0C4914" transform="translate(317.095703125,377.151123046875)"/>
<path d="M0 0 C1.33912585 3.12254943 2.67030658 6.24842358 4 9.375 C4.3815625 10.26445313 4.763125 11.15390625 5.15625 12.0703125 C5.5171875 12.92109375 5.878125 13.771875 6.25 14.6484375 C6.58515625 15.43395996 6.9203125 16.21948242 7.265625 17.02880859 C8 19 8 19 8 21 C-0.415 21.495 -0.415 21.495 -9 22 C-13.44761029 8.65716912 -13.44761029 8.65716912 -12 4 C-11 2 -11 2 -8.8125 0.875 C-5.72921803 -0.08424328 -3.20970313 -0.06215193 0 0 Z " fill="#0D4914" transform="translate(190,96)"/>
<path d="M0 0 C2.83404585 0.11505742 5.66679619 0.24177725 8.5 0.375 C9.29148438 0.4059375 10.08296875 0.436875 10.8984375 0.46875 C16.18128612 0.72856223 20.90743869 1.56333706 26 3 C22.61655227 6.45713443 19.14405729 9.70394082 15.4375 12.8125 C14.50808594 13.60269531 13.57867187 14.39289063 12.62109375 15.20703125 C10 17 10 17 6 17 C4.99580363 14.5433053 3.99649499 12.08481647 3 9.625 C2.71382812 8.92632812 2.42765625 8.22765625 2.1328125 7.5078125 C0 2.2265625 0 2.2265625 0 0 Z " fill="#16780A" transform="translate(216,118)"/>
<path d="M0 0 C1.82860979 3.27724872 2.70723391 6.48004399 3.5625 10.125 C4.47042749 14.17552646 4.47042749 14.17552646 6 18 C3.33311371 17.85756403 0.66654233 17.71113422 -2 17.5625 C-2.74378906 17.52318359 -3.48757812 17.48386719 -4.25390625 17.44335938 C-9.20733918 17.16338273 -14.08313469 16.66489429 -19 16 C-19 14 -19 14 -16.6875 11.625 C-15.800625 10.75875 -14.91375 9.8925 -14 9 C-12.97186389 7.68824014 -11.95915568 6.3630107 -11 5 C-10.41734375 5.22558594 -9.8346875 5.45117188 -9.234375 5.68359375 C-6.94272384 6.25409331 -6.94272384 6.25409331 -5.078125 4.78515625 C-4.47484375 4.21667969 -3.8715625 3.64820313 -3.25 3.0625 C-2.63640625 2.49660156 -2.0228125 1.93070313 -1.390625 1.34765625 C-0.93171875 0.90292969 -0.4728125 0.45820313 0 0 Z " fill="#0A4813" transform="translate(171,201)"/>
<path d="M0 0 C1.88583668 2.82875503 2.65642499 4.790896 3.5859375 8.0078125 C3.87726563 8.99523437 4.16859375 9.98265625 4.46875 11 C5.06604107 13.05962436 5.66241718 15.11951432 6.2578125 17.1796875 C7.89746653 22.73149852 9.70171105 27.90149077 12.35009766 33.05810547 C13.13973942 35.41753844 12.80365548 36.68342913 12 39 C4.73542601 39.48430493 4.73542601 39.48430493 1.4375 37.3125 C0 35 0 35 0.1875 32.625 C0.455625 31.75875 0.72375 30.8925 1 30 C2.06635064 25.8774267 2.06635064 25.8774267 1.02734375 21.92578125 C-0.46361028 17.67968022 -0.21152171 13.65002365 -0.125 9.1875 C-0.11597656 8.30384766 -0.10695312 7.42019531 -0.09765625 6.50976562 C-0.07419637 4.33972641 -0.03832865 2.16982753 0 0 Z " fill="#0B4913" transform="translate(168,386)"/>
<path d="M0 0 C0.66 5.94 1.32 11.88 2 18 C-1.75084639 17.24983072 -3.64514273 16.86396529 -6.76953125 15.15234375 C-7.43017578 14.79462891 -8.09082031 14.43691406 -8.77148438 14.06835938 C-9.44501953 13.69517578 -10.11855469 13.32199219 -10.8125 12.9375 C-11.85180664 12.37192383 -11.85180664 12.37192383 -12.91210938 11.79492188 C-14.61128985 10.86916148 -16.30609425 9.93537688 -18 9 C-16.6621001 4.98630031 -14.85163712 4.37584435 -11.25 2.25 C-10.20328125 1.61578125 -9.1565625 0.9815625 -8.078125 0.328125 C-5 -1 -5 -1 0 0 Z " fill="#0F4B15" transform="translate(143,119)"/>
<path d="M0 0 C6.6 0 13.2 0 20 0 C20.99 3.3 21.98 6.6 23 10 C14.37146017 9.48020844 6.36998082 8.14649508 -2 6 C-1.34 4.02 -0.68 2.04 0 0 Z " fill="#0B5524" transform="translate(208,231)"/>
<path d="M0 0 C3.42559084 1.20358597 5.53258609 2.35892646 8 5 C7.12988281 5.63615234 7.12988281 5.63615234 6.2421875 6.28515625 C0.74566458 10.41208352 -4.86285813 14.72571627 -8 21 C-8.66 21 -9.32 21 -10 21 C-9.82286145 13.20590385 -5.45982884 5.45982884 0 0 Z " fill="#104C17" transform="translate(111,141)"/>
<path d="M0 0 C1.32 0.33 2.64 0.66 4 1 C4 5.24645065 2.18249194 7.38524772 0 11 C-2.64 11 -5.28 11 -8 11 C-8 9 -8 9 -5.6875 6.625 C-4.800625 5.75875 -3.91375 4.8925 -3 4 C-1.97186389 2.68824014 -0.95915568 1.3630107 0 0 Z " fill="#0C5622" transform="translate(160,206)"/>
<path d="M0 0 C2.31 0 4.62 0 7 0 C6.55149342 1.81495662 6.09090429 3.62693134 5.625 5.4375 C5.36976563 6.44683594 5.11453125 7.45617187 4.8515625 8.49609375 C4 11 4 11 2 12 C0.00214565 7.8794254 -0.17835515 4.54805635 0 0 Z " fill="#15770A" transform="translate(135,257)"/>
</svg>
